# xmcd
#
# Track frame offsets:
# 150
# 13867
# 24344
# 37896
# 51196
# 63501
# 78659
# 93496
# 109684
# 125068
# 137883
# 151189
# 165681
# 181733
# 188573
# 200863
# 209905
# 218775
# 228073
# 243445
# 257595
#
# Disc length: 3803 seconds
#
# Revision: 0
# Processed by: cddbd v1.4PL0 Copyright (c) Steve Scherf et al.
# Submitted via: Audion 3.0.2 (http://www.panic.com/audion/)
#
DISCID=270ed915
DTITLE=Elvis Costello and The Attractions - Armed Forces
DYEAR=1900
DGENRE=
TTITLE0=Accidents Will Happen
TTITLE1=Senior Service
TTITLE2=Olivers Army
TTITLE3=Big Boys
TTITLE4=Green Shirt
TTITLE5=Party Girl
TTITLE6=Goon Squad
TTITLE7=Busy Bodies
TTITLE8=Sundays best
TTITLE9=Moods For Moderns
TTITLE10=Chemistry Class
TTITLE11=Two Little Hitlers
TTITLE12=(What´s So Funny ´Bout) Peace Love And Understanding?
TTITLE13=My Funny Valentine
TTITLE14=Tiny Steps
TTITLE15=Clean Money
TTITLE16=Talking In The Dark
TTITLE17=Wednesday Week
TTITLE18=Accidents Will Happen (Live)
TTITLE19=Alison (Live)
TTITLE20=Watching The Detectives (Live)
EXTD=
EXTT0=
EXTT1=
EXTT2=
EXTT3=
EXTT4=
EXTT5=
EXTT6=
EXTT7=
EXTT8=
EXTT9=
EXTT10=
EXTT11=
EXTT12=
EXTT13=
EXTT14=
EXTT15=
EXTT16=
EXTT17=
EXTT18=
EXTT19=
EXTT20=
PLAYORDER=
